<?xml version="1.0" standalone="no"?>
<!DOCTYPE svg PUBLIC "-//W3C//DTD SVG 20010904//EN"
 "http://www.w3.org/TR/2001/REC-SVG-20010904/DTD/svg10.dtd">
<svg version="1.0" xmlns="http://www.w3.org/2000/svg"
 width="40.000000pt" height="40.000000pt" viewBox="0 0 40.000000 40.000000"
 preserveAspectRatio="xMidYMid meet">
<metadata>
Created by potrace 1.10, written by Peter Selinger 2001-2011
</metadata>
<g transform="translate(0.000000,40.000000) scale(0.100000,-0.100000)"
fill="#000000" stroke="none">
<path d="M54 372 c-38 -30 -44 -57 -44 -179 1 -171 14 -183 197 -183 171 1
183 14 183 197 -1 171 -14 183 -197 183 -97 0 -122 -4 -139 -18z m256 -5 c51
-17 70 -62 69 -162 -1 -153 -31 -185 -174 -184 -153 1 -185 31 -184 174 1 153
31 185 174 184 44 0 96 -5 115 -12z"/>
<path d="M297 323 c-4 -3 -7 -12 -7 -20 0 -15 26 -18 34 -4 7 11 -18 33 -27
24z"/>
<path d="M141 274 c-46 -42 -52 -92 -15 -133 42 -46 92 -52 133 -15 46 42 52
92 15 133 -42 46 -92 52 -133 15z m110 -23 c16 -16 29 -39 29 -51 0 -28 -52
-80 -80 -80 -28 0 -80 52 -80 80 0 28 52 80 80 80 12 0 35 -13 51 -29z"/>
</g>
</svg>
